<svg width="512" height="512" viewBox="0 0 512 512" fill="none" xmlns="http://www.w3.org/2000/svg">
<g clip-path="url(#clip0_1_2)">
<path d="M157.156 74.094L164.188 162.873L160.672 148.809C172.392 121.853 191.437 100.464 217.807 84.642C244.177 68.234 274.649 60.03 309.223 60.03C343.797 60.03 371.925 70.285 393.607 90.795C415.875 110.719 427.302 136.796 427.888 169.026V438H345.262V198.033C344.676 178.109 338.816 161.994 327.682 149.688C317.134 136.796 300.433 130.35 277.579 130.35C256.483 130.35 237.438 136.21 220.444 147.93C203.45 159.65 189.972 175.765 180.01 196.275C170.634 216.785 165.946 240.518 165.946 267.474V438H84.199V74.094H157.156Z" fill="url(#paint0_linear_1_2)"/>
</g>
<defs>
<linearGradient id="paint0_linear_1_2" x1="120.372" y1="-123.49" x2="574.049" y2="536.349" gradientUnits="userSpaceOnUse">
<stop offset="0.5" stop-color="#FFE100"/>
<stop offset="0.5" stop-color="white"/>
</linearGradient>
<clipPath id="clip0_1_2">
<rect width="512" height="512" fill="white"/>
</clipPath>
</defs>
</svg>
